<svg width="20" height="20" viewBox="0 0 20 20" fill="none" xmlns="http://www.w3.org/2000/svg">
<path d="M12.6967 5.55469C12.2757 5.55469 11.872 5.68476 11.5743 5.91628C11.2766 6.14781 11.1094 6.46183 11.1094 6.78926V10.493C11.1094 10.8204 11.2766 11.1344 11.5743 11.3659C11.872 11.5975 12.2757 11.7275 12.6967 11.7275C12.9072 11.7275 13.109 11.7926 13.2579 11.9083C13.4067 12.0241 13.4903 12.1811 13.4903 12.3448V12.9621C13.4903 13.2895 13.3231 13.6035 13.0254 13.8351C12.7277 14.0666 12.324 14.1967 11.903 14.1967C11.6925 14.1967 11.4907 14.2617 11.3418 14.3775C11.193 14.4932 11.1094 14.6502 11.1094 14.8139V16.0485C11.1094 16.2122 11.193 16.3692 11.3418 16.485C11.4907 16.6008 11.6925 16.6658 11.903 16.6658C13.166 16.6658 14.3772 16.2756 15.2702 15.581C16.1632 14.8864 16.6649 13.9444 16.6649 12.9621V6.78926C16.6649 6.46183 16.4977 6.14781 16.2 5.91628C15.9023 5.68476 15.4986 5.55469 15.0776 5.55469H12.6967Z" stroke="#64748B" stroke-width="1.66667" stroke-linecap="round" stroke-linejoin="round"/>
<path d="M3.80996 5.55469C3.38898 5.55469 2.98524 5.68476 2.68757 5.91628C2.38989 6.14781 2.22266 6.46183 2.22266 6.78926V10.493C2.22266 10.8204 2.38989 11.1344 2.68757 11.3659C2.98524 11.5975 3.38898 11.7275 3.80996 11.7275C4.02045 11.7275 4.22232 11.7926 4.37115 11.9083C4.51999 12.0241 4.60361 12.1811 4.60361 12.3448V12.9621C4.60361 13.2895 4.43638 13.6035 4.1387 13.8351C3.84102 14.0666 3.43729 14.1967 3.01631 14.1967C2.80582 14.1967 2.60395 14.2617 2.45511 14.3775C2.30627 14.4932 2.22266 14.6502 2.22266 14.8139V16.0485C2.22266 16.2122 2.30627 16.3692 2.45511 16.485C2.60395 16.6008 2.80582 16.6658 3.01631 16.6658C4.27924 16.6658 5.49045 16.2756 6.38348 15.581C7.27651 14.8864 7.77821 13.9444 7.77821 12.9621V6.78926C7.77821 6.46183 7.61098 6.14781 7.3133 5.91628C7.01562 5.68476 6.61189 5.55469 6.19091 5.55469H3.80996Z" stroke="#64748B" stroke-width="1.66667" stroke-linecap="round" stroke-linejoin="round"/>
</svg>
