<svg width="24" height="24" viewBox="0 0 24 24" fill="none" xmlns="http://www.w3.org/2000/svg">
<path d="M12.4853 16.4142L11.4751 17.4244C10.8054 18.0941 9.90227 18.4757 8.96454 18.4852C8.02681 18.4947 7.13125 18.1313 6.47487 17.4749C5.8185 16.8185 5.45507 15.9229 5.46454 14.9852C5.47401 14.0475 5.85561 13.1444 6.52538 12.4746L7.53553 11.4645" stroke="#64748B" stroke-width="1.5" stroke-linecap="round" stroke-linejoin="round"/>
<path d="M13 7L14.0102 5.98985C14.6799 5.32007 15.583 4.93848 16.5207 4.92901C17.4585 4.91953 18.354 5.28296 19.0104 5.93934C19.6668 6.59572 20.0302 7.49128 20.0207 8.42901C20.0113 9.36674 19.6297 10.2698 18.9599 10.9396L17.9497 11.9497" stroke="#64748B" stroke-width="1.5" stroke-linecap="round" stroke-linejoin="round"/>
<path d="M10 14L14.2426 9.75736" stroke="#64748B" stroke-width="1.5" stroke-linecap="round" stroke-linejoin="round"/>
</svg>
