<svg width="20" height="20" viewBox="0 0 20 20" fill="none" xmlns="http://www.w3.org/2000/svg">
<rect x="0.75" y="0.75" width="18.5" height="18.5" rx="3.25" stroke="#020617" stroke-width="1.5"/>
<path d="M12.334 7.66602C13.2622 7.66602 14.1525 8.03476 14.8089 8.69114C15.4652 9.34752 15.834 10.2378 15.834 11.166V15.2493H13.5007V11.166C13.5007 10.8566 13.3777 10.5599 13.1589 10.3411C12.9401 10.1223 12.6434 9.99935 12.334 9.99935C12.0246 9.99935 11.7278 10.1223 11.509 10.3411C11.2902 10.5599 11.1673 10.8566 11.1673 11.166V15.2493H8.83398V11.166C8.83398 10.2378 9.20273 9.34752 9.85911 8.69114C10.5155 8.03476 11.4057 7.66602 12.334 7.66602Z" stroke="#020617" stroke-width="1.16667" stroke-linecap="round" stroke-linejoin="round"/>
<path d="M6.49935 8.25H4.16602V15.25H6.49935V8.25Z" stroke="#020617" stroke-width="1.16667" stroke-linecap="round" stroke-linejoin="round"/>
<path d="M5.33268 6.49935C5.97701 6.49935 6.49935 5.97701 6.49935 5.33268C6.49935 4.68835 5.97701 4.16602 5.33268 4.16602C4.68835 4.16602 4.16602 4.68835 4.16602 5.33268C4.16602 5.97701 4.68835 6.49935 5.33268 6.49935Z" stroke="#020617" stroke-width="1.16667" stroke-linecap="round" stroke-linejoin="round"/>
</svg>
