<svg width="20" height="20" viewBox="0 0 20 20" fill="none" xmlns="http://www.w3.org/2000/svg">
<path d="M15.8333 5.41667H14.1667C14.1667 3.11667 12.3 1.25 10 1.25C7.7 1.25 5.83333 3.11667 5.83333 5.41667H4.16667C3.25 5.41667 2.5 6.16667 2.5 7.08333V17.0833C2.5 18 3.25 18.75 4.16667 18.75H15.8333C16.75 18.75 17.5 18 17.5 17.0833V7.08333C17.5 6.16667 16.75 5.41667 15.8333 5.41667ZM10 2.91667C11.3833 2.91667 12.5 4.03333 12.5 5.41667H7.5C7.5 4.03333 8.61667 2.91667 10 2.91667ZM15.8333 17.0833H4.16667V7.08333H15.8333V17.0833ZM10 10.4167C8.61667 10.4167 7.5 9.3 7.5 7.91667H5.83333C5.83333 10.2167 7.7 12.0833 10 12.0833C12.3 12.0833 14.1667 10.2167 14.1667 7.91667H12.5C12.5 9.3 11.3833 10.4167 10 10.4167Z" fill="#3B82F6"/>
</svg>
