<svg width="20" height="20" viewBox="0 0 20 20" fill="none" xmlns="http://www.w3.org/2000/svg">
<path d="M10.834 10C10.834 12.7614 8.5954 15 5.83398 15C3.07256 15 0.833984 12.7614 0.833984 10C0.833984 7.23857 3.07256 5 5.83398 5C8.5954 5 10.834 7.23857 10.834 10Z" fill="#020617"/>
<path d="M19.1667 10.0007C19.1667 12.3018 18.7936 14.1673 18.3333 14.1673C17.8731 14.1673 17.5 12.3018 17.5 10.0007C17.5 7.69947 17.8731 5.83398 18.3333 5.83398C18.7936 5.83398 19.1667 7.69947 19.1667 10.0007Z" fill="#020617"/>
<path d="M14.166 15C15.5468 15 16.666 12.7614 16.666 10C16.666 7.23857 15.5468 5 14.166 5C12.7853 5 11.666 7.23857 11.666 10C11.666 12.7614 12.7853 15 14.166 15Z" fill="#020617"/>
</svg>
