<svg width="20" height="20" viewBox="0 0 20 20" fill="none" xmlns="http://www.w3.org/2000/svg">
<path d="M9.16667 16.1888V10.4805L4.16667 7.58464V13.293L9.16667 16.1888ZM10.8333 16.1888L15.8333 13.293V7.58464L10.8333 10.4805V16.1888ZM10 9.04297L14.9375 6.1888L10 3.33464L5.0625 6.1888L10 9.04297ZM3.33333 14.7513C3.06944 14.5985 2.86458 14.3971 2.71875 14.1471C2.57292 13.8971 2.5 13.6194 2.5 13.3138V6.6888C2.5 6.38325 2.57292 6.10547 2.71875 5.85547C2.86458 5.60547 3.06944 5.40408 3.33333 5.2513L9.16667 1.89714C9.43056 1.74436 9.70833 1.66797 10 1.66797C10.2917 1.66797 10.5694 1.74436 10.8333 1.89714L16.6667 5.2513C16.9306 5.40408 17.1354 5.60547 17.2812 5.85547C17.4271 6.10547 17.5 6.38325 17.5 6.6888V13.3138C17.5 13.6194 17.4271 13.8971 17.2812 14.1471C17.1354 14.3971 16.9306 14.5985 16.6667 14.7513L10.8333 18.1055C10.5694 18.2582 10.2917 18.3346 10 18.3346C9.70833 18.3346 9.43056 18.2582 9.16667 18.1055L3.33333 14.7513Z" fill="#3B82F6"/>
</svg>
