<svg width="25" height="24" viewBox="0 0 25 24" fill="none" xmlns="http://www.w3.org/2000/svg">
<path d="M16.8333 19.5H6.33325C5.93543 19.5 5.5539 19.342 5.27259 19.0607C4.99129 18.7794 4.83325 18.3978 4.83325 18V7.5" stroke="#64748B" stroke-width="1.5" stroke-linecap="round" stroke-linejoin="round"/>
<path d="M19.8333 12.7494L18.8613 11.7774C18.5223 11.4384 18.0626 11.248 17.5833 11.248C17.1039 11.248 16.6442 11.4384 16.3053 11.7774L11.5833 16.4994" stroke="#64748B" stroke-width="1.5" stroke-linecap="round" stroke-linejoin="round"/>
<path d="M12.3333 10.5C13.1617 10.5 13.8333 9.82843 13.8333 9C13.8333 8.17157 13.1617 7.5 12.3333 7.5C11.5048 7.5 10.8333 8.17157 10.8333 9C10.8333 9.82843 11.5048 10.5 12.3333 10.5Z" stroke="#64748B" stroke-width="1.5" stroke-linecap="round" stroke-linejoin="round"/>
<path d="M18.3333 4.5H9.33325C8.50482 4.5 7.83325 5.17157 7.83325 6V15C7.83325 15.8284 8.50482 16.5 9.33325 16.5H18.3333C19.1617 16.5 19.8333 15.8284 19.8333 15V6C19.8333 5.17157 19.1617 4.5 18.3333 4.5Z" stroke="#64748B" stroke-width="1.5" stroke-linecap="round" stroke-linejoin="round"/>
</svg>
