<svg width="9" height="13" viewBox="0 0 9 13" fill="none" xmlns="http://www.w3.org/2000/svg">
<path d="M4.646 12.192C3.83533 12.192 3.11533 12.048 2.486 11.76C1.85667 11.472 1.366 11.0613 1.014 10.528C0.662 9.99467 0.480667 9.36 0.47 8.624H2.502C2.502 8.99733 2.58733 9.33333 2.758 9.632C2.93933 9.92 3.18467 10.1493 3.494 10.32C3.814 10.4907 4.198 10.576 4.646 10.576C5.03 10.576 5.36067 10.5173 5.638 10.4C5.926 10.272 6.14467 10.096 6.294 9.872C6.454 9.63733 6.534 9.36533 6.534 9.056C6.534 8.704 6.44867 8.416 6.278 8.192C6.118 7.95733 5.894 7.76 5.606 7.6C5.318 7.44 4.98733 7.30133 4.614 7.184C4.24067 7.056 3.846 6.92267 3.43 6.784C2.54467 6.48533 1.878 6.10667 1.43 5.648C0.982 5.17867 0.758 4.55467 0.758 3.776C0.758 3.12533 0.912667 2.56533 1.222 2.096C1.53133 1.62667 1.96333 1.264 2.518 1.008C3.08333 0.741333 3.734 0.608 4.47 0.608C5.21667 0.608 5.86733 0.741333 6.422 1.008C6.98733 1.27467 7.43 1.648 7.75 2.128C8.08067 2.59733 8.25133 3.16267 8.262 3.824H6.214C6.20333 3.54667 6.12867 3.29067 5.99 3.056C5.85133 2.81067 5.64867 2.61333 5.382 2.464C5.126 2.304 4.81133 2.224 4.438 2.224C4.118 2.21333 3.83 2.26667 3.574 2.384C3.32867 2.49067 3.13133 2.65067 2.982 2.864C2.84333 3.06667 2.774 3.32267 2.774 3.632C2.774 3.93067 2.838 4.18133 2.966 4.384C3.10467 4.576 3.302 4.74133 3.558 4.88C3.814 5.008 4.11267 5.13067 4.454 5.248C4.79533 5.36533 5.16867 5.49333 5.574 5.632C6.12867 5.81333 6.63 6.03733 7.078 6.304C7.53667 6.56 7.89933 6.896 8.166 7.312C8.43267 7.728 8.566 8.26667 8.566 8.928C8.566 9.504 8.41667 10.0427 8.118 10.544C7.81933 11.0347 7.382 11.4347 6.806 11.744C6.23 12.0427 5.51 12.192 4.646 12.192Z" fill="#64748B"/>
</svg>
