<svg width="20" height="20" viewBox="0 0 20 20" fill="none" xmlns="http://www.w3.org/2000/svg">
<path d="M9.99163 1.66699C5.39163 1.66699 1.66663 5.40033 1.66663 10.0003C1.66663 14.6003 5.39163 18.3337 9.99163 18.3337C14.6 18.3337 18.3333 14.6003 18.3333 10.0003C18.3333 5.40033 14.6 1.66699 9.99163 1.66699ZM9.99996 16.667C6.31663 16.667 3.33329 13.6837 3.33329 10.0003C3.33329 6.31699 6.31663 3.33366 9.99996 3.33366C13.6833 3.33366 16.6666 6.31699 16.6666 10.0003C16.6666 13.6837 13.6833 16.667 9.99996 16.667ZM10.4166 5.83366H9.16663V10.8337L13.5416 13.4587L14.1666 12.4337L10.4166 10.2087V5.83366Z" fill="#3B82F6"/>
</svg>
