<svg width="20" height="20" viewBox="0 0 20 20" fill="none" xmlns="http://www.w3.org/2000/svg">
<path d="M13.1292 11.8791H12.4708L12.2375 11.6541C13.0542 10.7041 13.5458 9.47074 13.5458 8.12907C13.5458 5.1374 11.1208 2.7124 8.12916 2.7124C5.13749 2.7124 2.71249 5.1374 2.71249 8.12907C2.71249 11.1207 5.13749 13.5457 8.12916 13.5457C9.47083 13.5457 10.7042 13.0541 11.6542 12.2374L11.8792 12.4707V13.1291L16.0458 17.2874L17.2875 16.0457L13.1292 11.8791ZM8.12916 11.8791C6.05416 11.8791 4.37916 10.2041 4.37916 8.12907C4.37916 6.05407 6.05416 4.37907 8.12916 4.37907C10.2042 4.37907 11.8792 6.05407 11.8792 8.12907C11.8792 10.2041 10.2042 11.8791 8.12916 11.8791Z" fill="#94A3B8"/>
</svg>
