<svg width="20" height="20" viewBox="0 0 20 20" fill="none" xmlns="http://www.w3.org/2000/svg">
<path d="M15 13.4335C14.3667 13.4335 13.8 13.6835 13.3667 14.0752L7.425 10.6169C7.46667 10.4252 7.5 10.2335 7.5 10.0335C7.5 9.83353 7.46667 9.64186 7.425 9.4502L13.3 6.0252C13.75 6.44186 14.3417 6.7002 15 6.7002C16.3833 6.7002 17.5 5.58353 17.5 4.2002C17.5 2.81686 16.3833 1.7002 15 1.7002C13.6167 1.7002 12.5 2.81686 12.5 4.2002C12.5 4.4002 12.5333 4.59186 12.575 4.78353L6.7 8.20853C6.25 7.79186 5.65833 7.53353 5 7.53353C3.61667 7.53353 2.5 8.6502 2.5 10.0335C2.5 11.4169 3.61667 12.5335 5 12.5335C5.65833 12.5335 6.25 12.2752 6.7 11.8585L12.6333 15.3252C12.5917 15.5002 12.5667 15.6835 12.5667 15.8669C12.5667 17.2085 13.6583 18.3002 15 18.3002C16.3417 18.3002 17.4333 17.2085 17.4333 15.8669C17.4333 14.5252 16.3417 13.4335 15 13.4335ZM15 3.36686C15.4583 3.36686 15.8333 3.74186 15.8333 4.2002C15.8333 4.65853 15.4583 5.03353 15 5.03353C14.5417 5.03353 14.1667 4.65853 14.1667 4.2002C14.1667 3.74186 14.5417 3.36686 15 3.36686ZM5 10.8669C4.54167 10.8669 4.16667 10.4919 4.16667 10.0335C4.16667 9.5752 4.54167 9.2002 5 9.2002C5.45833 9.2002 5.83333 9.5752 5.83333 10.0335C5.83333 10.4919 5.45833 10.8669 5 10.8669ZM15 16.7169C14.5417 16.7169 14.1667 16.3419 14.1667 15.8835C14.1667 15.4252 14.5417 15.0502 15 15.0502C15.4583 15.0502 15.8333 15.4252 15.8333 15.8835C15.8333 16.3419 15.4583 16.7169 15 16.7169Z" fill="#94A3B8"/>
</svg>
