<svg width="124" height="20" viewBox="0 0 124 20" fill="none" xmlns="http://www.w3.org/2000/svg">
<rect x="0.75" y="0.75" width="18.5" height="18.5" rx="3.25" stroke="#020617" stroke-width="1.5"/>
<path d="M12.334 7.66602C13.2622 7.66602 14.1525 8.03476 14.8089 8.69114C15.4652 9.34752 15.834 10.2378 15.834 11.166V15.2493H13.5007V11.166C13.5007 10.8566 13.3777 10.5599 13.1589 10.3411C12.9401 10.1223 12.6434 9.99935 12.334 9.99935C12.0246 9.99935 11.7278 10.1223 11.509 10.3411C11.2902 10.5599 11.1673 10.8566 11.1673 11.166V15.2493H8.83398V11.166C8.83398 10.2378 9.20273 9.34752 9.85911 8.69114C10.5155 8.03476 11.4057 7.66602 12.334 7.66602Z" stroke="#020617" stroke-width="1.16667" stroke-linecap="round" stroke-linejoin="round"/>
<path d="M6.49935 8.25H4.16602V15.25H6.49935V8.25Z" stroke="#020617" stroke-width="1.16667" stroke-linecap="round" stroke-linejoin="round"/>
<path d="M5.33268 6.49935C5.97701 6.49935 6.49935 5.97701 6.49935 5.33268C6.49935 4.68835 5.97701 4.16602 5.33268 4.16602C4.68835 4.16602 4.16602 4.68835 4.16602 5.33268C4.16602 5.97701 4.68835 6.49935 5.33268 6.49935Z" stroke="#020617" stroke-width="1.16667" stroke-linecap="round" stroke-linejoin="round"/>
<g clip-path="url(#clip0_1305_5098)">
<path d="M40.166 1.66602H31.8327C29.5315 1.66602 27.666 3.5315 27.666 5.83268V14.166C27.666 16.4672 29.5315 18.3327 31.8327 18.3327H40.166C42.4672 18.3327 44.3327 16.4672 44.3327 14.166V5.83268C44.3327 3.5315 42.4672 1.66602 40.166 1.66602Z" stroke="#020617" stroke-width="1.66667" stroke-linecap="round" stroke-linejoin="round"/>
<path d="M39.3337 9.47525C39.4366 10.1688 39.3181 10.8771 38.9952 11.4994C38.6723 12.1218 38.1614 12.6264 37.5351 12.9416C36.9088 13.2569 36.1991 13.3666 35.5069 13.2552C34.8147 13.1438 34.1752 12.817 33.6794 12.3212C33.1837 11.8255 32.8569 11.186 32.7455 10.4938C32.6341 9.80154 32.7438 9.09183 33.059 8.46556C33.3742 7.8393 33.8789 7.32837 34.5012 7.00545C35.1236 6.68254 35.8319 6.56407 36.5254 6.66692C37.2328 6.77182 37.8878 7.10147 38.3935 7.60717C38.8992 8.11288 39.2288 8.76782 39.3337 9.47525Z" stroke="#020617" stroke-width="1.66667" stroke-linecap="round" stroke-linejoin="round"/>
<path d="M40.584 5.41602H40.5923" stroke="#020617" stroke-width="1.66667" stroke-linecap="round" stroke-linejoin="round"/>
</g>
<path d="M62.834 10C62.834 12.7614 60.5954 15 57.834 15C55.0726 15 52.834 12.7614 52.834 10C52.834 7.23857 55.0726 5 57.834 5C60.5954 5 62.834 7.23857 62.834 10Z" fill="#020617"/>
<path d="M71.1667 10.0007C71.1667 12.3018 70.7936 14.1673 70.3333 14.1673C69.8731 14.1673 69.5 12.3018 69.5 10.0007C69.5 7.69947 69.8731 5.83398 70.3333 5.83398C70.7936 5.83398 71.1667 7.69947 71.1667 10.0007Z" fill="#020617"/>
<path d="M66.166 15C67.5468 15 68.666 12.7614 68.666 10C68.666 7.23857 67.5468 5 66.166 5C64.7853 5 63.666 7.23857 63.666 10C63.666 12.7614 64.7853 15 66.166 15Z" fill="#020617"/>
<path d="M93.2033 1.875H95.9599L89.9374 8.75833L97.0224 18.125H91.4749L87.1299 12.4442L82.1583 18.125H79.3999L85.8416 10.7625L79.0449 1.875H84.7333L88.6608 7.0675L93.2033 1.875ZM92.2358 16.475H93.7633L83.9033 3.43833H82.2641L92.2358 16.475Z" fill="#020617"/>
<path d="M119 13.4335C118.367 13.4335 117.8 13.6835 117.367 14.0752L111.425 10.6169C111.467 10.4252 111.5 10.2335 111.5 10.0335C111.5 9.83353 111.467 9.64186 111.425 9.4502L117.3 6.0252C117.75 6.44186 118.342 6.7002 119 6.7002C120.383 6.7002 121.5 5.58353 121.5 4.2002C121.5 2.81686 120.383 1.7002 119 1.7002C117.617 1.7002 116.5 2.81686 116.5 4.2002C116.5 4.4002 116.533 4.59186 116.575 4.78353L110.7 8.20853C110.25 7.79186 109.658 7.53353 109 7.53353C107.617 7.53353 106.5 8.6502 106.5 10.0335C106.5 11.4169 107.617 12.5335 109 12.5335C109.658 12.5335 110.25 12.2752 110.7 11.8585L116.633 15.3252C116.592 15.5002 116.567 15.6835 116.567 15.8669C116.567 17.2085 117.658 18.3002 119 18.3002C120.342 18.3002 121.433 17.2085 121.433 15.8669C121.433 14.5252 120.342 13.4335 119 13.4335ZM119 3.36686C119.458 3.36686 119.833 3.74186 119.833 4.2002C119.833 4.65853 119.458 5.03353 119 5.03353C118.542 5.03353 118.167 4.65853 118.167 4.2002C118.167 3.74186 118.542 3.36686 119 3.36686ZM109 10.8669C108.542 10.8669 108.167 10.4919 108.167 10.0335C108.167 9.5752 108.542 9.2002 109 9.2002C109.458 9.2002 109.833 9.5752 109.833 10.0335C109.833 10.4919 109.458 10.8669 109 10.8669ZM119 16.7169C118.542 16.7169 118.167 16.3419 118.167 15.8835C118.167 15.4252 118.542 15.0502 119 15.0502C119.458 15.0502 119.833 15.4252 119.833 15.8835C119.833 16.3419 119.458 16.7169 119 16.7169Z" fill="#94A3B8"/>
<defs>
<clipPath id="clip0_1305_5098">
<rect width="20" height="20" fill="white" transform="translate(26)"/>
</clipPath>
</defs>
</svg>
