<svg width="16" height="16" viewBox="0 0 16 16" fill="none" xmlns="http://www.w3.org/2000/svg">
<path d="M6.846 2.30103C7.37771 1.45565 8.62237 1.45565 9.15408 2.30103L10.44 4.34552C10.6271 4.64296 10.9243 4.85641 11.2683 4.94038L13.6326 5.51755C14.6103 5.75621 14.9949 6.92637 14.3458 7.6875L12.7762 9.52824C12.5479 9.79604 12.4344 10.1414 12.4599 10.4907L12.6352 12.8919C12.7077 13.8848 11.7008 14.608 10.7679 14.233L8.51193 13.3262C8.18372 13.1943 7.81636 13.1943 7.48815 13.3262L5.23216 14.2331C4.29933 14.608 3.29238 13.8848 3.36488 12.8919L3.54022 10.4907C3.56573 10.1414 3.45221 9.79604 3.22385 9.52824L1.65424 7.6875C1.00521 6.92637 1.38983 5.75621 2.36747 5.51755L4.73183 4.94038C5.07581 4.85641 5.373 4.64296 5.56008 4.34552L6.846 2.30103Z" fill="#FBBF24"/>
</svg>
