<svg width="25" height="24" viewBox="0 0 25 24" fill="none" xmlns="http://www.w3.org/2000/svg">
<path d="M12.876 17.192C12.0653 17.192 11.3293 17.032 10.668 16.712C10.0173 16.392 9.49467 15.9013 9.1 15.24C8.716 14.5787 8.524 13.7467 8.524 12.744V5.8H10.444V12.76C10.444 13.368 10.5453 13.8693 10.748 14.264C10.9507 14.6587 11.2333 14.9573 11.596 15.16C11.9693 15.352 12.4067 15.448 12.908 15.448C13.42 15.448 13.8573 15.352 14.22 15.16C14.5933 14.9573 14.876 14.6587 15.068 14.264C15.2707 13.8693 15.372 13.368 15.372 12.76V5.8H17.292V12.744C17.292 13.7467 17.0947 14.5787 16.7 15.24C16.3053 15.9013 15.772 16.392 15.1 16.712C14.428 17.032 13.6867 17.192 12.876 17.192Z" fill="#64748B"/>
</svg>
