<svg width="20" height="20" viewBox="0 0 20 20" fill="none" xmlns="http://www.w3.org/2000/svg">
<path d="M4.99935 17.5V15.8333H9.16602V13.3333H3.33268C2.87435 13.3333 2.48199 13.1701 2.1556 12.8438C1.82921 12.5174 1.66602 12.125 1.66602 11.6667V4.16667C1.66602 3.70833 1.82921 3.31597 2.1556 2.98958C2.48199 2.66319 2.87435 2.5 3.33268 2.5H16.666C17.1243 2.5 17.5167 2.66319 17.8431 2.98958C18.1695 3.31597 18.3327 3.70833 18.3327 4.16667V11.6667C18.3327 12.125 18.1695 12.5174 17.8431 12.8438C17.5167 13.1701 17.1243 13.3333 16.666 13.3333H10.8327V15.8333H14.9993V17.5H4.99935ZM3.33268 11.6667H16.666V4.16667H3.33268V11.6667Z" fill="#3B82F6"/>
</svg>
