<svg width="44" height="36" viewBox="0 0 44 36" fill="none" xmlns="http://www.w3.org/2000/svg">
<rect width="44" height="36" rx="6" fill="#F8FAFC"/>
<path d="M21.992 9.66699C17.392 9.66699 13.667 13.4003 13.667 18.0003C13.667 22.6003 17.392 26.3337 21.992 26.3337C26.6003 26.3337 30.3337 22.6003 30.3337 18.0003C30.3337 13.4003 26.6003 9.66699 21.992 9.66699ZM22.0003 24.667C18.317 24.667 15.3337 21.6837 15.3337 18.0003C15.3337 14.317 18.317 11.3337 22.0003 11.3337C25.6837 11.3337 28.667 14.317 28.667 18.0003C28.667 21.6837 25.6837 24.667 22.0003 24.667ZM22.417 13.8337H21.167V18.8337L25.542 21.4587L26.167 20.4337L22.417 18.2087V13.8337Z" fill="#94A3B8"/>
</svg>
