<svg width="44" height="36" viewBox="0 0 44 36" fill="none" xmlns="http://www.w3.org/2000/svg">
<rect width="44" height="36" rx="6" fill="#F8FAFC"/>
<path d="M15.3337 25.5003C14.8753 25.5003 14.483 25.3371 14.1566 25.0107C13.8302 24.6844 13.667 24.292 13.667 23.8337V14.667C13.667 14.2087 13.8302 13.8163 14.1566 13.4899C14.483 13.1635 14.8753 13.0003 15.3337 13.0003H18.667V11.3337C18.667 10.8753 18.8302 10.483 19.1566 10.1566C19.483 9.83019 19.8753 9.66699 20.3337 9.66699H23.667C24.1253 9.66699 24.5177 9.83019 24.8441 10.1566C25.1705 10.483 25.3337 10.8753 25.3337 11.3337V13.0003H28.667C29.1253 13.0003 29.5177 13.1635 29.8441 13.4899C30.1705 13.8163 30.3337 14.2087 30.3337 14.667V23.8337C30.3337 24.292 30.1705 24.6844 29.8441 25.0107C29.5177 25.3371 29.1253 25.5003 28.667 25.5003H15.3337ZM20.3337 13.0003H23.667V11.3337H20.3337V13.0003ZM17.0003 14.667H15.3337V23.8337H17.0003V14.667ZM25.3337 23.8337V14.667H18.667V23.8337H25.3337ZM27.0003 14.667V23.8337H28.667V14.667H27.0003Z" fill="#94A3B8"/>
</svg>
