<svg width="44" height="36" viewBox="0 0 44 36" fill="none" xmlns="http://www.w3.org/2000/svg">
<rect width="44" height="36" rx="6" fill="#E2E8F0"/>
<path d="M21.9997 12.9163C22.9663 12.9163 23.7497 13.6997 23.7497 14.6663C23.7497 15.633 22.9663 16.4163 21.9997 16.4163C21.033 16.4163 20.2497 15.633 20.2497 14.6663C20.2497 13.6997 21.033 12.9163 21.9997 12.9163ZM21.9997 20.4163C24.4747 20.4163 27.083 21.633 27.083 22.1663V23.083H16.9163V22.1663C16.9163 21.633 19.5247 20.4163 21.9997 20.4163ZM21.9997 11.333C20.158 11.333 18.6663 12.8247 18.6663 14.6663C18.6663 16.508 20.158 17.9997 21.9997 17.9997C23.8413 17.9997 25.333 16.508 25.333 14.6663C25.333 12.8247 23.8413 11.333 21.9997 11.333ZM21.9997 18.833C19.7747 18.833 15.333 19.9497 15.333 22.1663V24.6663H28.6663V22.1663C28.6663 19.9497 24.2247 18.833 21.9997 18.833Z" fill="#94A3B8"/>
</svg>
